<?xml version="1.0" standalone="no"?>
<!DOCTYPE svg PUBLIC "-//W3C//DTD SVG 20010904//EN"
 "http://www.w3.org/TR/2001/REC-SVG-20010904/DTD/svg10.dtd">
<svg version="1.0" xmlns="http://www.w3.org/2000/svg"
 width="400.000000pt" height="400.000000pt" viewBox="0 0 400.000000 400.000000"
 preserveAspectRatio="xMidYMid meet">
<metadata>
Created by potrace 1.11, written by Peter Selinger 2001-2013
</metadata>
<g transform="translate(0.000000,400.000000) scale(0.100000,-0.100000)"
fill="#000000" stroke="none">
<path d="M0 3132 l0 -868 48 -17 c26 -9 57 -17 69 -17 24 0 73 20 73 29 0 10
57 41 63 35 11 -11 -37 -54 -60 -54 -26 0 -30 -16 -8 -40 13 -15 13 -21 -5
-58 -14 -28 -27 -42 -40 -42 -10 0 -21 -3 -23 -7 -4 -7 21 -102 30 -113 8 -9
20 23 16 41 -4 14 0 19 16 19 20 0 21 -5 21 -79 0 -66 -3 -82 -18 -93 -28 -20
-34 -35 -26 -73 6 -35 24 -49 24 -19 0 12 6 15 25 10 18 -5 25 -2 25 9 0 8 4
15 9 15 12 0 21 -39 10 -46 -5 -3 -7 -9 -5 -13 3 -4 -6 -19 -18 -32 -13 -14
-27 -40 -31 -59 -4 -19 -15 -34 -25 -37 -21 -6 -35 -52 -25 -83 8 -24 50 -27
63 -5 5 10 7 -8 4 -47 -2 -35 -10 -68 -17 -73 -18 -15 -23 -143 -6 -173 10
-18 10 -30 0 -57 -7 -19 -10 -37 -7 -41 11 -10 28 6 28 28 0 13 5 18 14 15 8
-3 17 -1 20 6 9 17 0 -35 -9 -55 -5 -13 -3 -18 9 -18 18 0 21 -11 7 -26 -16
-16 -17 -129 -2 -148 11 -13 11 -20 3 -28 -7 -7 -12 -19 -12 -27 0 -11 4 -11
19 3 10 9 17 25 15 34 -2 9 0 24 6 32 8 12 13 13 30 2 17 -10 20 -10 20 2 0 8
-4 18 -10 21 -15 9 -12 32 7 50 13 13 14 21 6 34 -6 10 -7 24 -2 32 6 11 0 20
-22 33 l-30 18 6 91 c6 74 11 95 27 109 18 16 21 29 27 126 0 12 7 22 15 22 8
0 17 6 20 13 3 8 9 6 20 -7 14 -18 16 -18 16 -3 0 10 7 20 15 23 20 8 29 42
15 59 -8 10 -9 19 -3 28 6 6 13 32 17 57 4 24 11 49 17 56 15 19 47 5 54 -24
l7 -27 9 24 c5 13 7 32 4 42 -6 18 14 49 31 49 4 0 12 8 19 17 12 16 14 16 29
0 21 -21 40 -22 56 -2 7 8 18 15 26 15 7 0 16 9 19 20 10 32 32 23 39 -15 9
-47 39 -49 34 -2 -3 32 -3 32 46 35 57 4 75 -8 50 -33 -13 -13 -15 -21 -7 -34
6 -9 16 -15 23 -13 6 1 14 -7 17 -18 4 -16 8 -18 20 -9 11 10 15 8 20 -10 7
-27 27 -22 31 7 2 12 9 19 16 16 7 -3 18 8 26 23 8 15 25 43 37 60 23 31 24
42 28 253 4 187 3 220 -9 220 -10 0 -17 -16 -21 -47 -11 -89 -19 -103 -23 -40
-2 34 3 78 12 105 28 84 31 129 10 149 -9 10 -22 18 -28 18 -11 0 -12 15 -5
44 6 21 -26 25 -45 5 -13 -13 -27 -15 -66 -10 -43 6 -49 4 -55 -14 -8 -25 -25
-26 -25 -2 0 10 -5 23 -12 30 -20 20 -2 25 114 26 l112 1 19 33 c12 21 22 29
27 22 7 -12 40 -3 40 11 0 17 25 9 38 -12 11 -17 20 -19 62 -15 30 4 50 2 50
-4 0 -6 6 -10 14 -10 8 0 17 -7 20 -16 9 -23 6 -146 -4 -169 l-9 -20 -2 20
c-1 11 -3 26 -3 34 -3 36 -24 16 -34 -31 -14 -66 -31 -213 -29 -252 2 -27 27
-52 27 -27 0 6 6 11 14 11 9 0 15 -18 19 -56 3 -31 8 -59 11 -62 3 -3 17 0 30
6 21 9 25 19 28 63 l3 53 28 -60 c16 -32 36 -72 44 -87 17 -32 8 -48 -45 -79
-25 -15 -31 -16 -50 -2 -11 8 -23 27 -25 42 -3 15 -4 -109 -2 -276 1 -166 -2
-302 -7 -302 -4 0 -8 4 -8 9 0 5 -8 11 -18 13 -13 4 -27 31 -47 92 -16 47 -33
86 -37 86 -4 0 -8 9 -8 20 0 11 -4 28 -9 38 -28 54 -33 72 -26 89 7 16 9 15
15 -7 8 -25 8 -25 9 -2 1 16 -6 26 -19 29 -10 3 -22 15 -26 27 -7 20 -8 20
-16 -7 -6 -15 -13 -25 -18 -22 -5 3 -11 -9 -15 -27 -8 -37 -26 -97 -62 -208
-29 -90 -34 -245 -9 -304 18 -43 35 -47 35 -8 -1 80 20 302 31 332 7 19 15 41
17 49 2 10 7 11 14 4 11 -11 7 -158 -6 -206 -4 -16 -3 -27 2 -27 6 0 20 38 33
85 13 47 27 88 32 91 10 6 4 -165 -8 -223 -5 -29 -3 -33 20 -39 32 -8 33 -16
4 -29 -23 -10 -37 -60 -40 -140 -1 -33 15 -128 27 -160 6 -14 5 -17 -3 -10
-15 15 -42 101 -42 138 0 43 -10 77 -22 77 -14 0 1 -126 22 -180 9 -25 29 -62
43 -84 34 -50 23 -70 -14 -25 -29 35 -50 83 -69 157 -6 23 -24 58 -41 77 l-30
34 -64 -39 c-78 -48 -168 -93 -236 -120 -76 -30 -204 -96 -254 -130 -24 -17
-57 -30 -73 -30 -29 0 -95 -44 -138 -92 -38 -43 -57 -130 -50 -230 5 -70 2
-110 -14 -191 -11 -56 -27 -138 -36 -182 -8 -44 -17 -90 -20 -103 l-4 -22
1032 2 1033 3 8 70 c15 124 14 223 -3 239 -8 9 -45 20 -82 25 -81 11 -88 15
-88 46 0 19 -18 39 -74 83 -82 64 -142 130 -194 211 -28 43 -32 57 -24 75 21
44 22 58 3 82 -11 13 -17 33 -14 44 7 26 -25 69 -118 163 -73 73 -77 80 -67
103 9 18 8 44 -1 102 -17 114 -27 477 -13 486 7 4 12 2 12 -4 0 -13 95 -156
110 -165 5 -3 10 -1 10 4 0 22 33 10 79 -29 45 -38 51 -40 115 -40 37 0 79 -6
94 -13 15 -8 56 -22 92 -31 36 -10 72 -25 82 -33 25 -22 31 -61 14 -95 -9 -17
-12 -36 -9 -42 4 -6 6 -19 5 -28 -5 -29 17 -58 43 -58 27 0 40 -28 30 -61 -22
-68 -93 -127 -141 -115 -26 7 -64 -18 -49 -32 6 -6 19 -12 30 -14 12 -2 21
-13 23 -27 l4 -24 -27 22 c-15 11 -39 20 -54 20 -18 -1 -20 -3 -8 -6 12 -3 17
-12 15 -26 -3 -21 5 -26 70 -43 22 -6 3 -24 -26 -24 -29 0 -53 -12 -55 -26 -1
-5 -5 -8 -9 -7 -5 2 -8 -17 -8 -41 0 -35 6 -50 33 -79 18 -20 43 -48 55 -62
12 -14 28 -25 35 -25 8 0 19 -12 26 -26 7 -15 17 -24 25 -21 8 3 24 -5 36 -18
23 -25 116 -62 127 -51 4 3 1 6 -6 6 -22 0 -88 51 -100 76 -10 23 -8 29 14 51
23 23 30 21 26 -9 -1 -13 112 -108 130 -108 7 0 -1 15 -18 33 -17 17 -35 41
-41 53 -13 24 -5 88 14 124 8 14 18 37 24 52 5 16 19 30 34 34 15 3 26 14 28
27 5 35 22 25 36 -20 8 -24 18 -43 23 -43 4 0 7 -6 5 -12 -11 -36 -16 -148 -6
-148 6 0 15 11 20 24 5 13 14 27 19 31 15 9 13 -6 -4 -28 -7 -11 -11 -25 -8
-33 3 -9 -1 -14 -13 -14 -16 0 -16 -2 2 -22 39 -44 50 -98 20 -98 -6 0 -19 8
-28 18 -24 25 -46 42 -55 42 -4 0 -2 -5 5 -12 7 -7 12 -16 12 -20 0 -13 -28
-9 -33 5 -2 6 -8 8 -13 4 -5 -4 -2 -12 5 -17 12 -7 4 -29 -36 -112 -28 -56
-54 -114 -58 -128 -4 -14 -13 -38 -20 -55 -7 -16 -17 -43 -24 -58 -6 -15 -11
-57 -11 -92 l0 -65 865 0 865 0 0 2000 0 2000 -40 0 c-38 0 -40 -1 -40 -32 0
-18 -9 -69 -20 -112 -19 -73 -22 -110 -18 -206 4 -85 -16 -361 -26 -369 -8 -7
-11 89 -10 355 l2 364 -138 0 -137 0 -7 -71 c-3 -39 -4 -74 -1 -79 11 -17 17
-250 7 -250 -5 0 -9 -19 -9 -42 0 -24 -4 -63 -9 -88 -8 -36 -14 -46 -32 -48
-14 -2 -28 -15 -35 -30 l-11 -27 -4 38 -3 37 -25 -29 c-13 -16 -24 -37 -24
-47 0 -31 -12 -64 -22 -64 -11 0 -3 61 12 89 5 9 21 46 35 84 19 51 23 72 15
86 -5 11 -8 49 -5 86 4 43 1 72 -6 81 -8 10 -8 22 -1 43 11 31 7 41 -16 41 -8
0 -12 -6 -9 -13 3 -8 1 -20 -5 -28 -7 -10 -8 -4 -5 21 3 21 0 43 -8 53 -9 12
-10 28 -5 50 4 18 10 49 13 70 l6 37 -80 0 c-43 0 -79 -3 -80 -7 -6 -51 -7
-223 -1 -251 5 -20 5 -48 2 -62 -6 -22 -8 -19 -15 19 -4 25 -9 68 -11 95 -10
157 -14 190 -22 198 -5 5 -110 8 -240 6 l-230 -3 -20 -25 c-23 -28 -43 -20
-24 10 12 19 9 20 -74 20 l-86 0 2 -27 c7 -95 -7 -160 -29 -138 -6 7 -5 31 3
70 6 33 10 68 8 78 -3 16 -55 17 -908 17 -897 0 -904 0 -904 -20 0 -11 -4 -20
-10 -20 -5 0 -10 9 -10 20 0 19 -7 20 -169 20 -153 0 -170 -2 -174 -17 -4 -17
-5 -17 -6 0 -1 15 -14 17 -126 17 -112 0 -124 -2 -118 -17 4 -11 3 -14 -5 -9
-8 5 -11 0 -9 -16 1 -15 -3 -22 -12 -20 -11 2 -13 -7 -8 -45 3 -26 0 -58 -6
-72 -10 -25 -11 -23 -18 24 -4 28 -5 74 -2 103 5 48 4 52 -16 52 l-21 0 0
-868z m2000 823 c0 -8 -4 -15 -10 -15 -5 0 -10 7 -10 15 0 8 5 15 10 15 6 0
10 -7 10 -15z m685 -26 c0 -20 6 -25 33 -27 28 -3 32 0 32 22 0 32 16 42 23
15 3 -12 10 -18 16 -14 16 9 13 -1 -5 -19 -8 -9 -25 -16 -36 -16 -11 0 -26 -7
-32 -14 -6 -8 -23 -18 -38 -22 -28 -6 -28 -6 -28 43 0 27 3 53 7 57 13 12 28
-1 28 -25z m-1983 -31 c-7 -7 -12 -8 -12 -2 0 14 12 26 19 19 2 -3 -1 -11 -7
-17z m1295 -10 c-3 -8 -6 -5 -6 6 -1 11 2 17 5 13 3 -3 4 -12 1 -19z m713 -63
c0 -8 -4 -15 -10 -15 -5 0 -7 7 -4 15 4 8 8 15 10 15 2 0 4 -7 4 -15z m-2656
-51 c7 -19 -2 -37 -15 -29 -12 8 -12 45 0 45 5 0 12 -7 15 -16z m2620 -15 c-3
-5 0 -16 6 -24 7 -8 9 -24 5 -36 -6 -17 -9 -19 -16 -8 -12 20 -11 92 1 84 6
-4 8 -11 4 -16z m-124 -44 c0 -46 -11 -63 -27 -42 -12 15 4 100 18 92 5 -4 9
-26 9 -50z m470 40 c0 -8 -4 -15 -10 -15 -5 0 -10 7 -10 15 0 8 5 15 10 15 6
0 10 -7 10 -15z m396 -103 c-12 -11 -16 6 -9 39 l8 34 3 -33 c2 -19 1 -36 -2
-40z m-3379 36 c-3 -8 -6 -5 -6 6 -1 11 2 17 5 13 3 -3 4 -12 1 -19z m3227
-83 c-4 -8 -8 -15 -10 -15 -2 0 -4 7 -4 15 0 8 4 15 10 15 5 0 7 -7 4 -15z
m171 -20 c0 -28 -29 -25 -33 3 -3 19 0 23 15 20 10 -2 18 -12 18 -23z m-161
-54 c3 -4 -1 -17 -9 -27 -14 -18 -14 -18 -15 9 0 26 13 36 24 18z m-1022 -173
c66 -32 218 -134 218 -146 0 -4 15 -17 34 -30 18 -12 51 -48 72 -80 21 -31 46
-64 54 -74 8 -9 20 -23 26 -30 7 -7 26 -24 43 -38 17 -14 31 -30 31 -37 0 -7
6 -16 14 -20 7 -4 29 -30 47 -58 18 -27 43 -59 55 -71 13 -13 27 -44 34 -78 6
-31 18 -69 26 -84 8 -15 14 -34 14 -42 0 -8 -16 16 -34 54 -19 37 -32 74 -29
82 3 8 -1 14 -11 14 -12 0 -15 6 -10 24 4 19 1 25 -18 30 -13 4 -49 37 -81 74
-32 37 -78 90 -103 117 -85 95 -124 140 -173 201 -44 54 -115 113 -126 103 -2
-2 18 -29 45 -58 27 -30 54 -67 61 -83 6 -15 17 -28 24 -28 7 0 19 -10 28 -22
8 -13 27 -36 41 -52 15 -15 24 -31 21 -34 -3 -4 -19 8 -36 26 -54 57 -47 38
29 -83 21 -33 41 -69 45 -80 9 -25 -7 -7 -104 122 -69 92 -164 193 -180 193
-5 0 -9 -11 -9 -25 0 -14 -4 -25 -10 -25 -5 0 -10 4 -10 9 0 14 -35 23 -64 15
-21 -5 -25 -11 -20 -28 3 -11 13 -25 22 -31 8 -5 32 -24 51 -40 20 -17 50 -39
66 -49 44 -28 173 -125 180 -136 3 -6 2 -10 -4 -10 -11 0 -79 24 -116 41 -25
12 -170 -4 -190 -21 -35 -29 -46 -142 -15 -148 9 -1 23 11 33 28 24 41 62 58
152 71 100 14 134 2 184 -61 59 -75 78 -170 61 -310 -7 -58 -14 -163 -15 -235
-1 -114 -4 -138 -27 -196 -40 -102 -56 -127 -89 -145 -35 -18 -51 -7 -46 30 4
35 -18 26 -46 -18 -31 -50 -86 -86 -161 -106 -65 -18 -250 -18 -300 -1 -32 11
-45 11 -77 1 -69 -23 -114 1 -214 113 -14 15 -25 31 -25 35 -1 14 -91 103 -99
97 -5 -3 -12 8 -16 24 -3 16 -13 35 -21 42 -16 13 -19 39 -4 39 12 0 12 54 0
90 -7 19 -8 13 -8 -27 1 -29 -1 -56 -5 -59 -15 -15 -26 11 -32 74 -7 78 -24
151 -39 171 -18 23 -17 277 1 336 14 47 88 194 103 205 10 7 111 129 144 172
15 21 65 62 109 92 45 30 92 66 105 80 21 25 24 25 55 12 67 -28 87 -39 87
-48 0 -4 7 -8 15 -8 8 0 15 7 15 15 0 8 5 15 11 15 6 0 9 9 6 20 -3 11 -4 20
-3 20 2 0 29 -9 62 -19 52 -18 56 -18 36 -3 -15 12 -19 21 -13 27 15 15 0 32
-45 54 l-39 20 40 -6 40 -6 -20 23 -20 23 52 -7 c29 -4 80 -21 115 -38z m1294
-94 c-8 -21 -26 -17 -26 6 0 10 6 32 13 47 l12 28 3 -34 c2 -18 1 -39 -2 -47z
m-1866 40 c0 -3 -14 -24 -31 -46 -17 -21 -29 -42 -25 -45 3 -4 12 -1 18 5 19
19 28 14 28 -13 0 -14 5 -25 12 -25 7 0 -23 -22 -65 -50 -42 -27 -83 -50 -91
-50 -7 0 -19 -7 -26 -15 -10 -12 -10 -15 4 -15 27 0 18 -18 -24 -46 -54 -36
-75 -26 -31 14 24 23 28 32 16 32 -9 0 -25 -5 -36 -10 -13 -8 -19 -7 -19 0 0
7 -9 9 -22 4 l-23 -6 23 20 c13 12 21 25 18 30 -6 10 27 56 63 87 13 11 42 36
65 56 22 20 52 40 66 44 14 4 34 14 45 21 21 15 35 18 35 8z m1606 -34 c-1
-28 -20 -30 -24 -2 -2 14 2 22 11 22 8 0 14 -9 13 -20z m184 -8 c0 -4 -9 -13
-20 -20 -18 -11 -20 -23 -20 -107 0 -57 -4 -95 -10 -95 -6 0 -10 34 -10 83 0
45 -3 92 -6 104 -5 18 -1 25 17 32 30 12 49 13 49 3z m-177 -77 c-2 -52 -2
-55 -12 -55 -14 0 -20 51 -10 78 12 32 23 21 22 -23z m247 21 c0 -7 -3 -27 -6
-44 -5 -23 -10 -28 -25 -25 -15 4 -17 11 -13 32 11 43 44 72 44 37z m325 -90
c-8 -60 -25 -67 -25 -10 0 31 19 78 28 69 2 -2 1 -28 -3 -59z m-339 -22 c-4
-9 -9 -15 -11 -12 -3 3 -3 13 1 22 4 9 9 15 11 12 3 -3 3 -13 -1 -22z m-245
-57 c-13 -13 -15 1 -4 30 7 17 8 17 11 -1 2 -10 -1 -23 -7 -29z m150 -114 c-9
-16 -10 -16 -11 -1 0 9 3 25 7 35 7 16 8 17 11 1 2 -10 -1 -25 -7 -35z m-131
-15 c0 -5 -4 -8 -10 -8 -5 0 -10 10 -10 23 0 18 2 19 10 7 5 -8 10 -18 10 -22z
m-2055 -167 l-26 -26 11 30 c6 16 17 36 23 44 10 12 13 12 15 -4 2 -10 -8 -29
-23 -44z m-79 -10 c-9 -10 -16 -22 -16 -28 0 -6 -7 -16 -15 -23 -24 -20 -18 5
12 51 15 23 29 36 31 30 2 -7 -3 -20 -12 -30z m-393 -163 c4 -10 8 -9 16 2 9
13 11 13 11 -3 0 -14 -7 -17 -37 -15 -21 1 -38 -3 -40 -9 -3 -7 -11 -9 -19 -6
-8 3 -21 0 -29 -7 -8 -7 -15 -8 -15 -4 0 16 62 50 97 53 6 1 14 -5 16 -11z
m-153 -108 c-9 -17 -14 -19 -26 -9 -13 10 -12 15 8 36 18 20 24 21 26 9 2 -8
-2 -24 -8 -36z m315 -11 c11 -17 -1 -21 -15 -4 -8 9 -8 15 -2 15 6 0 14 -5 17
-11z m2063 -114 c10 -11 25 -31 35 -44 9 -14 27 -26 39 -28 13 -2 29 -4 35 -5
10 -1 10 -5 1 -15 -9 -11 -8 -17 3 -24 10 -6 7 -9 -14 -9 -16 0 -27 -3 -25 -7
2 -5 10 -25 18 -46 8 -21 19 -36 26 -33 7 3 19 -15 29 -46 15 -47 15 -51 -1
-62 -15 -11 -13 -20 24 -92 23 -43 48 -102 56 -130 8 -27 18 -59 22 -70 4 -11
-5 -5 -24 16 -50 56 -139 211 -147 255 -4 22 -10 45 -15 50 -4 6 -17 37 -29
70 -11 33 -21 56 -21 50 -1 -30 -20 27 -20 62 0 39 -17 107 -40 158 -22 49
-18 65 4 20 14 -28 34 -60 44 -70z m-2517 56 c-7 -5 -11 -13 -7 -19 9 -15 -14
-27 -45 -24 -16 2 -34 -6 -50 -21 -13 -13 -39 -26 -57 -29 -35 -5 -39 8 -6 26
10 6 31 19 47 29 19 13 36 17 58 12 21 -5 29 -4 25 3 -4 6 2 15 11 21 22 13
44 14 24 2z m-31 -96 c0 -8 -4 -15 -10 -15 -5 0 -10 7 -10 15 0 8 5 15 10 15
6 0 10 -7 10 -15z m-128 -40 c3 -14 2 -25 -3 -25 -14 0 -39 31 -34 41 12 18
33 9 37 -16z m2538 -4 c0 -5 18 -31 40 -57 22 -27 45 -64 51 -84 10 -33 42
-117 59 -150 4 -8 5 -32 2 -53 -4 -39 20 -93 38 -82 5 3 8 -16 7 -45 -1 -32
-6 -50 -14 -50 -7 0 -13 -4 -13 -10 0 -5 -7 -10 -15 -10 -19 0 -19 -30 -1 -55
12 -17 16 -18 32 -5 16 14 17 13 9 -5 -12 -31 -13 -174 0 -169 6 3 24 -16 40
-41 26 -41 125 -148 132 -141 1 1 5 29 7 62 8 93 27 137 64 145 30 6 31 5 42
-40 6 -25 11 -85 12 -133 1 -88 11 -113 23 -59 7 31 -1 287 -10 301 -3 4 1 13
9 19 19 16 9 66 -25 134 -6 11 -5 25 2 38 8 15 8 24 0 32 -19 19 -13 40 9 34
17 -4 20 0 20 25 0 22 -6 31 -20 35 -25 7 -20 29 5 25 14 -3 16 1 11 23 -5 21
-3 28 13 32 30 8 35 35 10 54 -13 9 -19 21 -15 28 6 9 11 9 21 1 8 -7 18 -9
23 -6 14 8 27 -12 45 -69 9 -29 12 -51 7 -53 -6 -2 -10 -8 -10 -13 0 -6 5 -7
10 -4 7 5 10 -14 7 -57 -2 -34 -1 -70 3 -78 4 -8 10 -36 13 -62 5 -39 4 -48
-8 -48 -20 0 -19 -27 1 -38 11 -6 14 -14 8 -23 -5 -8 -9 -70 -10 -139 0 -69
-2 -174 -4 -233 l-3 -109 -26 5 c-14 3 -34 9 -43 12 -10 4 -18 3 -18 -2 0 -5
19 -15 43 -23 34 -12 43 -20 45 -42 3 -28 -12 -39 -21 -15 -2 6 -8 9 -12 5 -4
-4 -3 -13 2 -20 6 -7 13 -24 17 -38 11 -38 18 -210 9 -210 -5 0 -9 33 -9 73
-2 92 -38 167 -101 210 -24 16 -43 35 -43 43 0 17 -38 51 -92 82 -42 24 -66
22 -32 -2 10 -8 17 -17 14 -20 -3 -2 -20 7 -37 22 -17 15 -51 44 -76 64 -44
37 -70 89 -47 96 6 2 -3 11 -21 21 -38 19 -69 99 -70 176 0 102 -6 191 -13
213 -7 22 -26 31 -26 12 0 -5 -4 -10 -10 -10 -6 0 -7 18 -3 45 4 31 2 45 -6
45 -7 0 -11 31 -11 98 l0 97 -48 -51 c-26 -29 -62 -62 -81 -75 -32 -21 -34
-21 -27 -3 22 56 19 69 -16 79 -32 10 -33 11 -33 68 -1 31 3 57 8 57 12 0 43
-32 58 -62 l14 -26 27 22 c25 20 28 28 29 91 1 39 3 78 6 88 4 17 23 24 23 8z
m467 -47 c-3 -3 -12 -4 -19 -1 -8 3 -5 6 6 6 11 1 17 -2 13 -5z m-44 -54 c-6
-22 -7 -22 -13 -4 -4 10 -2 22 4 26 15 10 16 6 9 -22z m-2983 -31 c0 -5 -10
-9 -21 -9 -18 0 -19 2 -9 15 12 15 30 12 30 -6z m643 -81 c15 -34 26 -63 24
-64 -2 -2 -15 8 -30 22 -19 17 -26 32 -22 44 3 10 1 21 -5 25 -5 3 -10 13 -10
21 0 30 16 12 43 -48z m-707 5 c-11 -11 -19 6 -11 24 8 17 8 17 12 0 3 -10 2
-21 -1 -24z m14 -77 c0 -22 -11 -46 -22 -46 -5 0 -6 6 -1 13 4 6 6 20 5 30 -2
9 2 17 7 17 6 0 11 -6 11 -14z m2564 -188 c9 -51 -8 -107 -49 -165 -20 -26
-38 -56 -41 -65 -7 -20 -13 -22 -32 -10 -9 6 -4 25 23 76 28 54 35 79 35 124
1 49 2 55 14 40 17 -23 26 -13 26 31 1 43 14 25 24 -31z m-2306 9 c5 -37 -15
-34 -20 3 -3 19 -1 29 6 27 6 -2 12 -16 14 -30z m2382 -81 c-5 -13 -7 -26 -4
-29 7 -7 -56 -108 -94 -151 -36 -41 -38 -42 -43 -10 -4 20 38 94 54 94 4 0 7
5 7 11 0 9 79 109 86 109 2 0 -1 -11 -6 -24z m-210 -67 c-4 -22 -15 -48 -24
-57 -8 -10 -21 -33 -27 -50 -6 -18 -14 -30 -19 -27 -13 8 8 94 37 146 29 55
44 50 33 -12z m593 29 c6 -22 5 -22 -8 -4 -17 22 -20 40 -6 32 5 -3 11 -16 14
-28z m-1868 -125 c-1 -35 -7 -69 -14 -76 -6 -6 -11 -25 -11 -41 -1 -28 -19
-66 -32 -66 -7 0 -6 34 1 40 13 11 31 78 31 116 0 21 3 56 7 77 9 58 22 24 18
-50z m1495 40 c-1 -24 -2 -26 -11 -10 -5 9 -7 22 -4 27 10 17 15 11 15 -17z
m-33 -108 c-4 -8 -11 -15 -17 -15 -14 0 -13 27 3 33 16 6 21 1 14 -18z m-247
-62 c0 -38 29 -111 47 -117 22 -9 35 4 29 27 -4 18 -4 19 11 5 19 -20 93 -171
86 -178 -2 -3 -27 19 -54 49 -27 30 -51 52 -54 49 -3 -2 14 -40 36 -84 39 -73
65 -154 50 -154 -3 0 -25 17 -48 38 -28 26 -58 71 -92 140 -56 112 -56 111
-39 194 13 61 28 78 28 31z m-113 -65 c-3 -60 -10 -96 -27 -131 -30 -64 -136
-174 -175 -181 -30 -6 -30 -6 -9 11 12 10 27 40 33 67 7 27 21 67 32 90 10 22
19 46 19 53 0 20 31 77 46 86 8 4 14 15 14 22 0 9 10 15 25 15 18 0 26 7 31
25 11 45 15 26 11 -57z m-1178 26 c25 -42 25 -44 6 -44 -8 0 -17 -14 -21 -36
-4 -20 -25 -57 -51 -87 -24 -28 -47 -65 -51 -81 l-8 -29 -11 37 c-10 31 -9 36
6 36 30 0 54 40 56 94 3 59 11 82 31 90 8 3 14 17 14 31 0 33 4 32 29 -11z
m1761 -266 c29 -47 25 -68 -5 -28 -23 31 -32 60 -20 60 3 0 14 -15 25 -32z
m-194 -5 c-10 -10 -19 5 -10 18 6 11 8 11 12 0 2 -7 1 -15 -2 -18z m-1327
-185 c40 -81 56 -165 30 -156 -16 5 -60 117 -69 173 -4 28 -14 67 -24 87 -9
21 -16 48 -15 60 0 15 7 4 19 -29 10 -28 37 -89 59 -135z m1298 140 c-3 -7 -5
-2 -5 12 0 14 2 19 5 13 2 -7 2 -19 0 -25z m423 12 c0 -5 -2 -10 -4 -10 -3 0
-8 5 -11 10 -3 6 -1 10 4 10 6 0 11 -4 11 -10z m-1629 -112 c7 -18 17 -36 22
-39 5 -4 7 -15 5 -25 -5 -18 -5 -18 -13 1 -4 11 -14 27 -21 35 -16 20 -31 75
-17 67 6 -4 16 -21 24 -39z m1097 -3 c2 -10 -1 -27 -6 -39 -6 -11 -13 -37 -15
-56 -4 -34 -21 -88 -38 -122 -5 -10 -6 -24 -3 -32 3 -8 1 -23 -5 -33 -9 -16
-10 -16 -11 5 0 12 -4 22 -10 22 -5 0 -10 13 -10 30 0 26 -2 28 -22 21 -32
-12 -47 -39 -28 -51 13 -8 13 -10 1 -10 -19 0 -61 39 -61 56 0 8 6 11 15 8 9
-4 31 9 56 32 45 43 104 155 87 165 -6 4 -8 14 -5 23 8 21 51 6 55 -19z m-572
9 c-9 -9 -27 -14 -43 -12 -28 4 -28 4 7 15 49 16 54 15 36 -3z m1001 -106 c-3
-8 -6 -5 -6 6 -1 11 2 17 5 13 3 -3 4 -12 1 -19z m203 -3 c0 -8 -2 -15 -4 -15
-2 0 -6 7 -10 15 -3 8 -1 15 4 15 6 0 10 -7 10 -15z m-85 -124 c7 -44 20 -60
29 -36 11 30 28 16 22 -17 -4 -18 -8 -57 -9 -85 -1 -29 -7 -55 -13 -57 -7 -3
-17 -22 -24 -43 -19 -60 -43 -113 -52 -113 -4 0 0 19 9 42 21 52 23 175 5 273
-7 39 -15 90 -18 115 l-6 45 25 -42 c14 -23 28 -60 32 -82z m-123 87 c-7 -7
-12 -8 -12 -2 0 14 12 26 19 19 2 -3 -1 -11 -7 -17z m-1934 -7 c3 -8 -1 -12
-9 -9 -7 2 -15 10 -17 17 -3 8 1 12 9 9 7 -2 15 -10 17 -17z m1881 -60 c19
-12 4 -31 -25 -31 -35 0 -30 34 6 39 3 0 11 -3 19 -8z m-1663 -16 c-11 -8 -31
-15 -45 -15 -24 0 -24 1 -5 15 10 8 30 14 44 14 24 0 24 0 6 -14z m1696 -69
c10 -24 4 -65 -9 -52 -4 3 -12 22 -19 41 -10 29 -9 35 2 35 8 0 19 -11 26 -24z
m-1042 -6 c0 -5 -4 -10 -10 -10 -5 0 -10 5 -10 10 0 6 5 10 10 10 6 0 10 -4
10 -10z m-705 -12 c27 -12 34 -28 11 -28 -17 0 -66 39 -49 40 7 0 24 -5 38
-12z m1256 -35 c-8 -15 -10 -15 -11 -2 0 17 10 32 18 25 2 -3 -1 -13 -7 -23z
m534 -112 c9 -54 -4 -130 -27 -164 -22 -30 -36 -31 -19 0 16 27 39 153 29 159
-11 7 -10 44 1 44 5 0 12 -18 16 -39z m-622 -58 c-3 -8 -21 -13 -43 -13 -21 0
-41 -6 -43 -12 -3 -7 -6 -3 -6 10 -1 17 6 24 29 29 17 3 30 9 30 14 0 5 9 4
19 -3 10 -6 17 -18 14 -25z m-143 -24 c0 -6 -4 -7 -10 -4 -5 3 -10 11 -10 16
0 6 5 7 10 4 6 -3 10 -11 10 -16z m-7 -73 c3 -8 -2 -16 -14 -19 -21 -6 -22 -5
-13 17 8 20 20 21 27 2z m312 -55 c-3 -6 -16 -16 -28 -22 -21 -11 -21 -10 2
15 23 25 40 29 26 7z m455 -30 c0 -4 -11 -18 -25 -31 -30 -28 -31 -37 -7 -43
12 -3 7 -8 -20 -20 -21 -10 -46 -17 -57 -17 -18 0 -20 5 -14 31 7 38 48 86 56
67 3 -7 6 -1 6 14 1 26 3 26 31 17 17 -6 30 -14 30 -18z m-386 -26 c-10 -8
-23 -14 -29 -14 -5 0 -1 6 9 14 11 8 24 15 30 15 5 0 1 -7 -10 -15z"/>
<path d="M2175 3230 c3 -5 11 -10 16 -10 6 0 7 5 4 10 -3 6 -11 10 -16 10 -6
0 -7 -4 -4 -10z"/>
<path d="M1800 2891 c-49 -15 -69 -33 -59 -53 7 -14 22 -18 62 -18 29 0 72 -5
96 -11 62 -14 76 -7 57 29 -25 49 -93 72 -156 53z"/>
<path d="M1645 2838 c-32 -17 -95 -81 -112 -111 -17 -33 -12 -46 8 -22 50 61
104 115 120 120 10 4 19 11 19 16 0 12 -10 11 -35 -3z"/>
<path d="M2469 2733 c-1 -4 -1 -12 0 -16 1 -5 -18 -5 -41 0 -55 10 -142 7
-169 -8 -30 -16 -19 -21 57 -25 38 -3 71 -8 74 -13 10 -17 85 -42 107 -36 28
7 38 38 21 72 -12 26 -47 44 -49 26z"/>
<path d="M1760 2713 c-8 -3 -37 -16 -63 -29 -48 -24 -48 -24 -42 -3 5 15 3 20
-6 17 -21 -7 -32 -34 -25 -61 5 -22 12 -27 37 -27 28 0 86 25 99 42 3 3 38 10
78 13 40 4 75 11 78 16 14 23 -111 48 -156 32z"/>
<path d="M2213 2561 c-17 -27 -89 -46 -119 -32 -14 6 -42 7 -75 2 -41 -7 -58
-15 -76 -37 -24 -30 -29 -49 -14 -58 4 -3 41 -11 82 -17 41 -6 86 -17 101 -25
39 -20 96 -17 148 9 l45 22 -3 50 c-4 80 -60 134 -89 86z m-188 -111 c3 -5 -3
-10 -14 -10 -11 0 -23 5 -26 10 -3 6 3 10 14 10 11 0 23 -4 26 -10z"/>
<path d="M1793 2425 c-39 -42 -83 -116 -83 -138 0 -31 18 -17 41 31 12 26 38
68 56 95 40 55 32 62 -14 12z"/>
<path d="M2141 2336 c-11 -14 -26 -16 -70 -12 -75 6 -171 -22 -249 -75 -54
-36 -60 -44 -51 -61 16 -29 67 -48 96 -35 13 5 23 14 23 19 0 4 6 8 14 8 8 0
16 12 18 27 6 51 45 67 181 71 150 5 197 -9 197 -58 l0 -30 -92 -2 c-51 -1
-117 -1 -147 1 -57 3 -114 -15 -108 -33 2 -6 13 -9 23 -7 42 8 274 9 279 1 3
-5 -6 -12 -20 -16 -35 -9 -19 -22 30 -24 57 -4 65 -2 65 15 0 8 7 15 15 15 21
0 74 34 91 58 19 27 12 40 -44 83 -69 53 -87 60 -166 66 -59 5 -74 3 -85 -11z"/>
<path d="M2500 2298 c0 -16 5 -28 10 -28 13 0 13 20 0 40 -8 12 -10 9 -10 -12z"/>
<path d="M2560 2280 c0 -5 5 -10 10 -10 6 0 10 5 10 10 0 6 -4 10 -10 10 -5 0
-10 -4 -10 -10z"/>
<path d="M3444 1319 c-3 -6 1 -18 10 -27 15 -15 16 -14 16 11 0 27 -13 36 -26
16z"/>
<path d="M3441 1224 c0 -11 3 -14 6 -6 3 7 2 16 -1 19 -3 4 -6 -2 -5 -13z"/>
<path d="M2465 1290 c-3 -5 1 -10 10 -10 9 0 13 5 10 10 -3 6 -8 10 -10 10 -2
0 -7 -4 -10 -10z"/>
<path d="M3531 3958 c0 -33 2 -38 9 -23 12 28 12 65 0 65 -5 0 -10 -19 -9 -42z"/>
<path d="M3514 3769 c-4 -7 -8 -30 -10 -53 -2 -22 -6 -57 -10 -76 -3 -19 -3
-32 1 -28 13 13 55 143 50 156 -6 15 -22 16 -31 1z"/>
<path d="M3487 3483 c-12 -11 -8 -23 8 -23 8 0 15 7 15 15 0 16 -12 20 -23 8z"/>
<path d="M1171 2387 c-39 -48 -55 -193 -37 -335 8 -60 9 -62 23 -42 8 11 18
61 23 112 5 50 13 95 19 101 14 14 14 30 0 21 -8 -4 -8 0 0 15 10 17 9 22 -4
27 -12 5 -14 17 -10 60 5 57 4 62 -14 41z"/>
<path d="M0 1964 c0 -168 3 -217 15 -241 15 -30 12 -63 -6 -63 -5 0 -9 -350
-9 -830 l0 -830 39 0 38 0 6 78 c4 42 9 149 12 237 3 88 8 194 11 235 7 106
14 383 14 595 1 99 4 206 7 238 5 50 8 57 24 52 22 -7 38 20 21 37 -8 8 -15 8
-27 -2 -13 -11 -15 -2 -15 83 0 99 -13 135 -24 69 -4 -20 -10 -46 -13 -57 l-6
-20 -8 20 c-11 29 -11 75 1 75 6 0 10 7 10 15 0 8 -6 15 -13 15 -8 0 -14 6
-15 13 -1 6 -4 27 -6 45 -2 19 -8 50 -12 70 -10 49 -11 121 -1 115 4 -2 7 -15
7 -29 0 -13 4 -24 9 -24 10 0 3 128 -9 180 -23 92 -29 113 -39 123 -8 8 -11
-49 -11 -199z"/>
<path d="M106 2155 c4 -8 8 -15 10 -15 2 0 4 7 4 15 0 8 -4 15 -10 15 -5 0 -7
-7 -4 -15z"/>
<path d="M525 1630 c-3 -5 -1 -10 4 -10 6 0 11 5 11 10 0 6 -2 10 -4 10 -3 0
-8 -4 -11 -10z"/>
<path d="M1121 1344 c0 -11 3 -14 6 -6 3 7 2 16 -1 19 -3 4 -6 -2 -5 -13z"/>
<path d="M545 1321 c-3 -5 -1 -12 5 -16 5 -3 10 1 10 9 0 18 -6 21 -15 7z"/>
<path d="M368 1273 c7 -3 16 -2 19 1 4 3 -2 6 -13 5 -11 0 -14 -3 -6 -6z"/>
<path d="M1119 1237 c-2 -27 -1 -53 2 -59 13 -20 18 9 10 58 l-7 49 -5 -48z"/>
<path d="M320 1171 c0 -5 7 -11 15 -15 9 -3 15 0 15 9 0 8 -7 15 -15 15 -8 0
-15 -4 -15 -9z"/>
<path d="M370 1120 c0 -11 7 -20 15 -20 8 0 15 6 15 14 0 8 -7 16 -15 20 -10
4 -15 -1 -15 -14z"/>
</g>
</svg>
